<?xml version="1.0" standalone="no"?>
<!DOCTYPE svg PUBLIC "-//W3C//DTD SVG 20010904//EN"
 "http://www.w3.org/TR/2001/REC-SVG-20010904/DTD/svg10.dtd">
<svg version="1.0" xmlns="http://www.w3.org/2000/svg"
 width="186.000000pt" height="187.000000pt" viewBox="0 0 186.000000 187.000000"
 preserveAspectRatio="xMidYMid meet">
<metadata>
Created by potrace 1.16, written by Peter Selinger 2001-2019
</metadata>
<g transform="translate(0.000000,187.000000) scale(0.100000,-0.100000)"
fill="#000000" stroke="none">
<path d="M110 1786 c0 -22 5 -24 60 -28 71 -5 109 -29 127 -79 17 -49 17
-1459 0 -1508 -18 -50 -56 -74 -127 -79 -55 -4 -60 -6 -60 -28 l0 -24 315 0
315 0 0 25 c0 23 -4 25 -45 25 -25 0 -61 6 -80 14 -68 29 -65 -14 -65 891 l0
815 -220 0 -220 0 0 -24z"/>
<path d="M1160 1785 c0 -22 4 -25 38 -25 65 0 111 -19 132 -53 19 -31 20 -57
20 -849 l0 -818 220 0 220 0 0 24 c0 22 -5 24 -60 28 -71 5 -109 29 -127 79
-17 49 -17 1459 0 1508 18 50 56 74 127 79 55 4 60 6 60 28 l0 24 -315 0 -315
0 0 -25z"/>
<path d="M640 1392 l0 -201 75 -115 c41 -63 75 -118 75 -121 0 -3 -34 -5 -75
-5 l-75 0 0 -40 0 -40 104 0 103 0 199 -305 199 -305 3 196 2 196 -68 107 -69
106 68 3 69 3 0 39 0 39 -97 3 -97 3 -202 313 c-111 172 -204 316 -208 319 -3
4 -6 -84 -6 -195z"/>
</g>
</svg>
